<svg width="527.1099365234375px" height="121.40498046875px" xmlns="http://www.w3.org/2000/svg" viewBox="-13.554968261718727 14.297509765625001 527.1099365234375 121.40498046875" style="background: rgba(0, 0, 0, 0);" preserveAspectRatio="xMidYMid"><defs><filter id="editing-hole" x="-100%" y="-100%" width="300%" height="300%"><feFlood flood-color="#000" result="black"></feFlood><feMorphology operator="dilate" radius="2" in="SourceGraphic" result="erode"></feMorphology><feGaussianBlur in="erode" stdDeviation="4" result="blur"></feGaussianBlur><feOffset in="blur" dx="2" dy="2" result="offset"></feOffset><feComposite operator="atop" in="offset" in2="black" result="merge"></feComposite><feComposite operator="in" in="merge" in2="SourceGraphic" result="inner-shadow"></feComposite></filter></defs><g filter="url(#editing-hole)"><g transform="translate(63.920007944107056, 104.79000091552734)"><path d="M14.21 0L0.51 0L8.32-42.05L8.32-42.05Q14.66-42.75 23.90-42.75L23.90-42.75L23.90-42.75Q33.15-42.75 37.44-40.06L37.44-40.06L37.44-40.06Q41.73-37.38 41.73-31.97L41.73-31.97L41.73-31.97Q41.73-26.56 38.94-23.17L38.94-23.17L38.94-23.17Q36.16-19.78 31.36-18.69L31.36-18.69L31.36-18.69Q32.45-13.38 34.94-9.09L34.94-9.09L34.94-9.09Q37.25-5.06 39.94-3.78L39.94-3.78L39.94-3.78Q38.98-1.09 37.02 0.10L37.02 0.10L37.02 0.10Q35.07 1.28 32.29 1.28L32.29 1.28L32.29 1.28Q29.50 1.28 27.33-0.35L27.33-0.35L27.33-0.35Q25.15-1.98 23.42-4.99L23.42-4.99L23.42-4.99Q19.78-11.52 19.39-21.82L19.39-21.82L19.84-21.82L19.84-21.82Q24.58-21.95 26.94-24.42L26.94-24.42L26.94-24.42Q29.31-26.88 29.31-32.06L29.31-32.06L29.31-32.06Q29.31-38.53 23.87-38.78L23.87-38.78L22.46-38.78L22.46-38.78Q21.89-38.78 21.57-38.72L21.57-38.72L14.21 0ZM60.03-3.52L60.03-3.52L60.03-3.52Q58.05 1.28 51.71 1.28L51.71 1.28L51.71 1.28Q48.45 1.28 46.40-0.96L46.40-0.96L46.40-0.96Q44.67-2.94 44.67-4.93L44.67-4.93L44.67-4.93Q44.67-10.11 47.04-20.22L47.04-20.22L49.41-32.64L62.40-33.92L58.50-13.70L58.50-13.70Q57.41-8.96 57.41-7.30L57.41-7.30L57.41-7.30Q57.41-3.65 60.03-3.52ZM50.56-41.54L50.56-41.54L50.56-41.54Q50.56-44.03 52.64-45.38L52.64-45.38L52.64-45.38Q54.72-46.72 57.73-46.72L57.73-46.72L57.73-46.72Q60.74-46.72 62.56-45.38L62.56-45.38L62.56-45.38Q64.38-44.03 64.38-41.54L64.38-41.54L64.38-41.54Q64.38-39.04 62.37-37.76L62.37-37.76L62.37-37.76Q60.35-36.48 57.34-36.48L57.34-36.48L57.34-36.48Q54.34-36.48 52.45-37.76L52.45-37.76L52.45-37.76Q50.56-39.04 50.56-41.54ZM96.90-26.62L96.90-26.62L96.90-26.62Q96.90-23.94 94.66-22.27L94.66-22.27L94.66-22.27Q92.42-20.61 88.77-20.61L88.77-20.61L88.77-20.61Q87.23-20.61 86.34-21.06L86.34-21.06L86.34-21.06Q87.04-22.72 87.26-24.80L87.26-24.80L87.26-24.80Q87.49-26.88 87.49-27.46L87.49-27.46L87.49-27.46Q87.49-30.14 85.63-30.14L85.63-30.14L85.63-30.14Q84.35-30.14 82.91-28.54L82.91-28.54L82.91-28.54Q81.47-26.94 80.26-24.45L80.26-24.45L80.26-24.45Q77.57-18.69 77.57-12.86L77.57-12.86L77.57-12.86Q77.57-9.66 78.78-8.22L78.78-8.22L78.78-8.22Q80-6.78 82.69-6.78L82.69-6.78L82.69-6.78Q86.40-6.78 89.34-9.86L89.34-9.86L89.34-9.86Q90.18-10.82 90.62-11.90L90.62-11.90L90.62-11.90Q93.06-10.62 93.06-7.10L93.06-7.10L93.06-7.10Q93.06-3.52 89.09-1.15L89.09-1.15L89.09-1.15Q84.99 1.28 78.46 1.28L78.46 1.28L78.46 1.28Q65.47 1.28 65.47-12.48L65.47-12.48L65.47-12.48Q65.47-22.53 71.17-28.29L71.17-28.29L71.17-28.29Q76.67-33.92 86.78-33.92L86.78-33.92L86.78-33.92Q96.90-33.92 96.90-26.62ZM115.14-30.34L115.14-30.34L115.14-30.34Q118.59-33.92 125.89-33.92L125.89-33.92L125.89-33.92Q129.92-33.92 132.13-31.78L132.13-31.78L132.13-31.78Q134.34-29.63 134.34-25.70L134.34-25.70L134.34-25.70Q134.34-21.76 132.13-18.98L132.13-18.98L132.13-18.98Q129.92-16.19 125.82-15.04L125.82-15.04L125.82-15.04Q126.14-13.76 126.59-12.42L126.59-12.42L127.49-9.86L127.49-9.86Q128.70-6.59 129.66-5.44L129.66-5.44L129.66-5.44Q130.62-4.29 131.90-3.90L131.90-3.90L131.90-3.90Q131.20-1.28 128.64 0.13L128.64 0.13L128.64 0.13Q126.59 1.28 123.78 1.28L123.78 1.28L123.78 1.28Q115.52 1.28 114.43-11.46L114.43-11.46L114.43-11.46Q114.24-13.25 114.24-15.04L114.24-15.04L114.24-15.04Q117.44-15.94 119.68-18.94L119.68-18.94L119.68-18.94Q121.92-21.95 121.92-25.47L121.92-25.47L121.92-25.47Q121.92-28.99 119.42-28.99L119.42-28.99L119.42-28.99Q117.63-28.99 116.22-27.01L116.22-27.01L116.22-27.01Q114.82-25.02 114.18-21.63L114.18-21.63L109.95 0L97.02 1.28L105.98-44.80L118.85-46.08L117.38-38.46L117.38-38.46Q116.42-33.09 115.14-30.34ZM163.65-1.09L163.65-1.09L163.65-1.09Q157.95 1.28 150.98 1.28L150.98 1.28L150.98 1.28Q144.83 1.28 140.67-1.92L140.67-1.92L140.67-1.92Q136.13-5.31 136.13-11.33L136.13-11.33L136.13-11.33Q136.13-20.22 146.82-22.72L146.82-22.72L146.82-22.72Q145.02-27.78 145.02-31.30L145.02-31.30L145.02-31.30Q145.02-34.82 146.37-37.09L146.37-37.09L146.37-37.09Q147.71-39.36 150.02-40.83L150.02-40.83L150.02-40.83Q154.37-43.52 161.66-43.52L161.66-43.52L161.66-43.52Q166.72-43.52 169.92-41.60L169.92-41.60L169.92-41.60Q173.18-39.62 173.18-36.67L173.18-36.67L173.18-36.67Q173.18-33.34 170.88-31.49L170.88-31.49L170.88-31.49Q168.83-29.76 165.44-29.76L165.44-29.76L165.44-29.76Q163.46-29.76 162.82-29.95L162.82-29.95L162.82-29.95Q163.07-31.36 163.07-33.66L163.07-33.66L163.07-33.66Q163.07-35.97 162.30-37.54L162.30-37.54L162.30-37.54Q161.54-39.10 160.26-39.10L160.26-39.10L160.26-39.10Q157.89-39.10 156.99-37.02L156.99-37.02L156.99-37.02Q156.10-34.94 156.10-31.90L156.10-31.90L156.10-31.90Q156.10-28.86 156.70-26.08L156.70-26.08L156.70-26.08Q157.31-23.30 158.46-20.61L158.46-20.61L158.46-20.61Q160.90-15.04 164.80-11.26L164.80-11.26L164.80-11.26Q165.82-13.76 165.95-17.66L165.95-17.66L165.95-17.66Q165.95-21.12 163.58-23.17L163.58-23.17L163.58-23.17Q164.48-24 166.21-24.51L166.21-24.51L166.21-24.51Q167.94-25.02 169.47-25.02L169.47-25.02L169.47-25.02Q172.86-25.02 174.46-22.98L174.46-22.98L174.46-22.98Q176.06-20.93 176.06-17.66L176.06-17.66L176.06-17.66Q176.06-11.84 171.90-7.04L171.90-7.04L171.90-7.04Q173.50-6.59 174.98-6.59L174.98-6.59L174.98-6.59Q178.18-6.59 179.20-7.42L179.20-7.42L179.20-7.42Q179.71-6.21 179.71-4.61L179.71-4.61L179.71-4.61Q179.71-1.41 177.63-0.06L177.63-0.06L177.63-0.06Q175.55 1.28 171.84 1.28L171.84 1.28L171.84 1.28Q168.13 1.28 163.65-1.09ZM148.99-17.86L148.99-17.86L148.99-17.86Q147.58-16.45 147.58-13.95L147.58-13.95L147.58-13.95Q147.58-11.46 148.16-9.89L148.16-9.89L148.16-9.89Q148.74-8.32 149.63-7.17L149.63-7.17L149.63-7.17Q151.68-4.67 154.37-4.67L154.37-4.67L154.37-4.67Q156.80-4.67 158.21-5.18L158.21-5.18L158.21-5.18Q152.83-10.24 148.99-17.86ZM189.25 0L181.89 0L193.47-42.24L206.85-42.24L209.79-18.11L221.70-42.24L232.90-42.24L234.05-10.62L234.05-10.62Q234.30-4.35 237.38-2.43L237.38-2.43L237.38-2.43Q236.67-1.15 234.62 0.06L234.62 0.06L234.62 0.06Q232.58 1.28 229.86 1.28L229.86 1.28L229.86 1.28Q227.14 1.28 225.54 0.51L225.54 0.51L225.54 0.51Q223.94-0.26 223.04-1.54L223.04-1.54L223.04-1.54Q221.44-3.84 221.44-8.26L221.44-8.26L221.44-28.03L208.83 0L200.90 0L196.42-28.74L189.25 0ZM254.08 1.28L254.08 1.28L254.08 1.28Q240.00 1.28 240.00-11.97L240.00-11.97L240.00-11.97Q240.00-21.38 245.18-27.46L245.18-27.46L245.18-27.46Q250.69-33.92 260.22-33.92L260.22-33.92L260.22-33.92Q267.14-33.92 270.66-30.72L270.66-30.72L270.66-30.72Q274.18-27.52 274.18-20.80L274.18-20.80L274.18-20.80Q274.18-10.56 268.67-4.61L268.67-4.61L268.67-4.61Q263.30 1.28 254.08 1.28ZM255.74-26.56L255.74-26.56L255.74-26.56Q254.98-24.83 254.37-22.24L254.37-22.24L254.37-22.24Q253.76-19.65 252.99-15.55L252.99-15.55L252.99-15.55Q252.22-11.46 252.22-6.40L252.22-6.40L252.22-6.40Q252.22-4.74 252.77-3.65L252.77-3.65L252.77-3.65Q253.31-2.56 254.78-2.56L254.78-2.56L254.78-2.56Q256.26-2.56 257.18-3.26L257.18-3.26L257.18-3.26Q258.11-3.97 258.82-5.63L258.82-5.63L258.82-5.63Q260.10-8.58 261.12-14.05L261.12-14.05L261.12-14.05Q262.14-19.52 262.24-21.89L262.24-21.89L262.24-21.89Q262.34-24.26 262.34-26.02L262.34-26.02L262.34-26.02Q262.34-27.78 261.82-28.93L261.82-28.93L261.82-28.93Q261.31-30.08 259.87-30.08L259.87-30.08L259.87-30.08Q258.43-30.08 257.47-29.18L257.47-29.18L257.47-29.18Q256.51-28.29 255.74-26.56ZM297.98-17.98L297.98-17.98L297.98-17.98Q300.29-22.08 300.29-26.24L300.29-26.24L300.29-26.24Q300.29-28.99 298.30-28.99L298.30-28.99L298.30-28.99Q296.77-28.99 295.17-26.37L295.17-26.37L295.17-26.37Q293.50-23.74 292.99-20.35L292.99-20.35L289.66 0L276.42 1.28L282.94-32.64L293.50-33.92L292.35-27.46L292.35-27.46Q295.49-33.92 302.53-33.92L302.53-33.92L302.53-33.92Q306.24-33.92 308.26-32L308.26-32L308.26-32Q310.27-30.08 310.27-26.14L310.27-26.14L310.27-26.14Q310.27-22.21 307.68-19.71L307.68-19.71L307.68-19.71Q305.09-17.22 300.67-17.22L300.67-17.22L300.67-17.22Q298.75-17.22 297.98-17.98ZM312.32-6.40L312.32-6.40L312.32-6.40Q312.32-8.13 313.22-12.48L313.22-12.48L316.61-29.76L312.83-29.76L313.09-31.68L313.09-31.68Q320.77-33.98 328.19-39.62L328.19-39.62L331.26-39.62L329.73-32.64L334.72-32.64L334.14-29.76L329.22-29.76L325.95-12.48L325.95-12.48Q325.12-8.51 325.12-7.17L325.12-7.17L325.12-7.17Q325.12-4.10 327.81-3.46L327.81-3.46L327.81-3.46Q327.17-1.28 324.86 0L324.86 0L324.86 0Q322.56 1.28 319.30 1.28L319.30 1.28L319.30 1.28Q316.03 1.28 314.18-0.77L314.18-0.77L314.18-0.77Q312.32-2.82 312.32-6.40ZM354.75-7.23L354.75-7.23L354.75-7.23Q351.42-3.78 345.34-3.78L345.34-3.78L345.34-3.78Q337.73-3.78 336.13-9.34L336.13-9.34L336.13-9.34Q335.62-11.01 335.62-12.86L335.62-12.86L335.62-12.86Q335.62-14.72 336-16.64L336-16.64L339.01-32.64L352-33.92L348.48-15.30L348.48-15.30Q348.35-14.46 348.16-13.57L348.16-13.57L348.16-13.57Q347.97-12.67 347.97-11.74L347.97-11.74L347.97-11.74Q347.97-10.82 348.29-10.21L348.29-10.21L348.29-10.21Q348.61-9.60 349.06-9.22L349.06-9.22L349.06-9.22Q349.82-8.70 351.20-8.70L351.20-8.70L351.20-8.70Q352.58-8.70 353.76-10.37L353.76-10.37L353.76-10.37Q354.94-12.03 355.52-14.91L355.52-14.91L359.04-32.64L371.65-33.92L366.85-8.77L366.85-8.77Q364.48 3.52 359.62 8.38L359.62 8.38L359.62 8.38Q357.12 10.88 353.89 11.87L353.89 11.87L353.89 11.87Q350.66 12.86 346.50 12.86L346.50 12.86L346.50 12.86Q339.78 12.86 335.94 10.75L335.94 10.75L335.94 10.75Q332.10 8.64 332.10 5.12L332.10 5.12L332.10 5.12Q332.10 2.50 334.08 0.99L334.08 0.99L334.08 0.99Q336.06-0.51 339.14-0.51L339.14-0.51L339.14-0.51Q341.82-0.51 343.87 0.64L343.87 0.64L343.87 0.64Q345.09 1.34 345.66 2.24L345.66 2.24L345.66 2.24Q344.19 3.52 344.19 5.63L344.19 5.63L344.19 5.63Q344.19 8.45 346.75 8.45L346.75 8.45L346.75 8.45Q350.98 8.45 353.41-1.28L353.41-1.28L353.41-1.28Q354.11-4.16 354.75-7.23Z" fill="#ccc"></path></g></g><style>text {
  font-size: 64px;
  font-family: Arial Black;
  dominant-baseline: central;
  text-anchor: middle;
}</style></svg>